<?xml version="1.0" standalone="no"?>
<!DOCTYPE svg PUBLIC "-//W3C//DTD SVG 20010904//EN"
 "http://www.w3.org/TR/2001/REC-SVG-20010904/DTD/svg10.dtd">
<svg version="1.0" xmlns="http://www.w3.org/2000/svg"
 width="500.000000pt" height="500.000000pt" viewBox="0 0 500.000000 500.000000"
 preserveAspectRatio="xMidYMid meet">

<g transform="translate(0.000000,500.000000) scale(0.100000,-0.100000)"
fill="#000000" stroke="none">
<path d="M1713 2075 c0 -33 2 -48 4 -32 4 22 9 27 34 27 24 0 29 -4 29 -25 0
-14 5 -25 10 -25 6 0 10 25 10 55 0 30 -4 55 -10 55 -5 0 -10 -11 -10 -25 0
-21 -5 -25 -29 -25 -25 0 -30 5 -34 28 -2 15 -4 0 -4 -33z"/>
<path d="M1885 2106 c-33 -50 20 -104 70 -72 27 18 34 63 13 84 -21 21 -66 14
-83 -12z m75 -1 c15 -18 6 -61 -16 -69 -24 -9 -54 12 -54 37 0 43 44 63 70 32z"/>
<path d="M2062 2073 c1 -50 2 -52 5 -15 5 49 16 54 33 12 7 -16 15 -30 19 -30
4 0 16 15 26 33 l20 32 6 -45 6 -45 1 58 c1 31 -1 57 -6 57 -4 0 -16 -16 -26
-35 -11 -19 -22 -35 -26 -35 -3 0 -14 16 -23 35 -25 52 -37 43 -35 -22z"/>
<path d="M2260 2075 l0 -55 38 1 c30 2 32 3 10 6 -35 5 -39 40 -5 46 l22 4
-22 2 c-35 2 -31 39 5 44 22 3 20 4 -10 6 l-38 1 0 -55z"/>
<path d="M2502 2118 c-19 -19 -14 -63 8 -83 42 -38 102 14 76 66 -13 27 -63
38 -84 17z m66 -10 c18 -18 14 -56 -7 -68 -26 -14 -50 -3 -57 26 -11 42 34 72
64 42z"/>
<path d="M2681 2073 c1 -32 4 -46 6 -31 3 18 12 28 26 31 l22 4 -22 2 c-35 2
-31 39 5 44 25 4 25 4 -5 6 l-33 1 1 -57z"/>
<path d="M2907 2123 c19 -4 23 -12 26 -56 l3 -52 2 52 c2 45 5 52 25 56 12 2
0 4 -28 4 -27 0 -40 -2 -28 -4z"/>
<path d="M3052 2075 c1 -33 3 -48 5 -32 4 23 9 27 38 27 29 0 34 -4 38 -27 2
-16 4 -1 5 32 0 39 -2 51 -7 35 -5 -19 -13 -25 -36 -25 -23 0 -31 6 -36 25 -5
16 -7 4 -7 -35z"/>
<path d="M3230 2075 l0 -55 33 1 c30 2 30 2 5 6 -35 5 -39 40 -5 46 l22 4 -22
2 c-35 2 -31 39 5 44 25 4 25 4 -5 6 l-33 1 0 -55z"/>
<path d="M1754 1895 c-7 -18 13 -45 33 -45 8 0 13 -7 11 -17 -3 -12 -12 -17
-28 -15 -18 2 -22 0 -13 -9 16 -16 53 -1 53 22 0 11 -11 24 -25 31 -33 15 -32
36 3 41 l27 4 -28 2 c-16 0 -30 -5 -33 -14z"/>
<path d="M1890 1855 l0 -55 33 1 c23 1 26 3 10 6 -20 4 -23 11 -23 54 0 27 -4
49 -10 49 -5 0 -10 -25 -10 -55z"/>
<path d="M2034 1866 c2 -92 70 -92 72 0 1 44 1 45 -3 7 -2 -23 -11 -47 -19
-53 -22 -19 -42 4 -47 53 -4 38 -4 37 -3 -7z"/>
<path d="M2206 1894 c-22 -21 -20 -50 4 -74 23 -23 50 -26 68 -8 15 15 16 38
2 38 -5 0 -10 -9 -10 -20 0 -13 -7 -20 -19 -20 -26 0 -43 24 -39 57 3 24 7 28
36 28 17 0 32 3 32 7 0 15 -58 8 -74 -8z"/>
<path d="M2370 1856 c0 -51 2 -56 23 -56 36 0 45 13 44 60 -2 43 -3 45 -34 48
l-33 3 0 -55z m55 24 c0 -8 -10 -16 -22 -18 -18 -3 -23 2 -23 18 0 16 5 21 23
18 12 -2 22 -10 22 -18z m3 -47 c-2 -10 -13 -19 -26 -21 -17 -3 -22 2 -22 17
0 16 6 21 26 21 19 0 25 -5 22 -17z"/>
<path d="M2520 1876 c0 -19 8 -44 19 -57 16 -21 22 -22 45 -11 23 10 26 17 24
59 l-1 48 -4 -42 c-7 -78 -63 -85 -63 -7 0 24 -4 44 -10 44 -5 0 -10 -15 -10
-34z"/>
<path d="M2701 1853 c1 -32 4 -46 6 -30 5 34 18 34 39 2 20 -30 31 -27 13 3
-10 17 -10 23 0 36 18 21 -2 46 -35 46 -23 0 -24 -3 -23 -57z m49 27 c0 -13
-7 -20 -20 -20 -13 0 -20 7 -20 20 0 13 7 20 20 20 13 0 20 -7 20 -20z"/>
<path d="M2862 1898 c-18 -18 -14 -63 8 -83 25 -23 70 -13 70 15 0 11 -4 20
-10 20 -5 0 -7 -6 -4 -14 3 -8 1 -17 -5 -21 -19 -11 -51 6 -57 31 -9 33 13 57
47 52 16 -3 26 -1 23 4 -8 12 -58 10 -72 -4z"/>
<path d="M3020 1855 l0 -55 38 1 c36 1 36 2 7 8 -37 8 -48 41 -13 42 l23 0
-22 9 c-34 14 -29 38 10 43 31 4 31 4 -5 5 l-38 2 0 -55z"/>
<path d="M3171 1853 c1 -32 4 -46 6 -30 5 34 18 34 39 2 20 -30 31 -27 13 3
-10 17 -10 23 0 36 18 21 -2 46 -35 46 -23 0 -24 -3 -23 -57z m49 27 c0 -13
-7 -20 -20 -20 -13 0 -20 7 -20 20 0 13 7 20 20 20 13 0 20 -7 20 -20z"/>
</g>
</svg>
