<?xml version="1.0" standalone="no"?>
<!DOCTYPE svg PUBLIC "-//W3C//DTD SVG 20010904//EN"
 "http://www.w3.org/TR/2001/REC-SVG-20010904/DTD/svg10.dtd">
<svg version="1.0" xmlns="http://www.w3.org/2000/svg"
 width="500.000000pt" height="500.000000pt" viewBox="0 0 500.000000 500.000000"
 preserveAspectRatio="xMidYMid meet">

<g transform="translate(0.000000,500.000000) scale(0.100000,-0.100000)"
fill="#000000" stroke="none">
<path d="M2273 2937 c-40 -95 -75 -180 -79 -189 -5 -14 -1 -18 20 -18 22 0 31
8 47 45 l20 46 67 -3 67 -3 15 -42 c13 -39 18 -43 47 -43 18 0 33 2 33 5 0 9
-151 360 -158 367 -4 4 -39 -71 -79 -165z m113 -64 c-2 -2 -22 -3 -44 -1 l-39
3 20 54 21 55 23 -53 c13 -30 22 -56 19 -58z"/>
<path d="M1840 2915 l0 -185 25 0 c23 0 24 4 27 63 l3 62 58 5 c51 5 63 10 88
38 23 26 29 42 29 80 0 86 -49 122 -165 122 l-65 0 0 -185z m154 109 c20 -20
21 -78 0 -94 -8 -8 -34 -14 -57 -14 l-42 -1 -3 63 -3 62 45 0 c27 0 51 -6 60
-16z"/>
<path d="M2630 3070 c0 -29 2 -30 45 -30 l45 0 0 -155 0 -155 30 0 30 0 0 155
0 155 45 0 c43 0 45 1 45 30 l0 30 -120 0 -120 0 0 -30z"/>
<path d="M3000 3035 c0 -57 2 -65 19 -65 22 0 31 26 31 88 0 38 -2 42 -25 42
-24 0 -25 -2 -25 -65z"/>
<path d="M3234 3084 c-33 -16 -54 -50 -54 -88 0 -36 37 -75 95 -101 65 -28 83
-56 60 -91 -18 -29 -73 -33 -119 -9 -16 9 -30 14 -31 13 -1 -2 -7 -12 -13 -24
-10 -18 -7 -23 24 -37 19 -10 59 -17 89 -17 65 0 111 32 121 84 10 55 -17 93
-90 126 -72 32 -80 41 -72 75 8 32 46 41 98 25 33 -9 42 -9 49 2 14 22 10 28
-26 44 -44 18 -92 18 -131 -2z"/>
<path d="M2439 2643 c-4 -68 -11 -128 -15 -135 -3 -4 -12 -8 -20 -8 -12 0 -19
19 -15 43 2 15 -19 6 -29 -12 -13 -26 -13 -54 1 -46 6 4 8 13 5 21 -3 7 0 16
6 20 6 4 8 3 5 -3 -9 -15 19 -37 38 -29 12 4 15 -3 16 -32 1 -20 5 6 10 58 4
52 12 96 18 98 12 4 3 32 -10 32 -5 0 -9 -3 -10 -7z"/>
<path d="M2488 2633 c6 -2 18 -2 25 0 6 3 1 5 -13 5 -14 0 -19 -2 -12 -5z"/>
<path d="M2380 2610 c-18 -12 -2 -12 25 0 13 6 15 9 5 9 -8 0 -22 -4 -30 -9z"/>
<path d="M2234 2558 c-13 -74 1 -141 21 -107 5 8 4 10 -3 5 -15 -9 -16 64 -3
112 5 17 6 32 1 32 -4 0 -12 -19 -16 -42z"/>
<path d="M2536 2563 c-9 -55 -7 -111 3 -117 5 -3 12 1 15 10 9 22 8 26 -5 18
-8 -4 -9 13 -4 60 8 71 2 91 -9 29z"/>
<path d="M2937 2593 c-11 -19 -17 -129 -7 -143 11 -18 12 -17 14 77 1 74 1 79
-7 66z"/>
<path d="M2059 2523 c-7 -27 -20 -53 -28 -60 -14 -11 -14 -12 1 -13 12 0 18
-10 20 -32 3 -32 28 -47 34 -20 1 7 0 8 -3 2 -8 -17 -23 -1 -23 26 0 25 15 33
23 12 4 -10 6 -10 6 -1 1 6 -4 15 -10 18 -15 10 19 45 37 38 10 -4 12 0 8 11
-3 9 -1 16 5 16 6 0 11 8 11 18 -1 12 -9 6 -31 -20 -17 -21 -35 -38 -39 -38
-8 0 2 60 14 79 4 6 3 11 -2 11 -5 0 -15 -21 -23 -47z"/>
<path d="M2177 2530 c-16 -23 -15 -40 4 -40 6 0 7 5 3 11 -3 6 -1 15 6 19 7 4
10 14 8 21 -3 8 -10 5 -21 -11z"/>
<path d="M2677 2543 c-11 -10 -8 -43 3 -43 5 0 15 10 21 22 8 15 14 18 17 10
3 -10 7 -10 18 -1 12 9 14 5 14 -25 0 -22 5 -36 13 -36 17 1 47 25 47 39 0 6
5 11 10 11 6 0 10 7 10 17 0 15 -2 14 -20 -2 -11 -10 -22 -26 -25 -36 -10 -31
-25 -22 -25 15 0 31 -3 34 -24 32 -14 -1 -32 -8 -41 -16 -13 -11 -15 -10 -9 4
6 17 2 21 -9 9z"/>
<path d="M3022 2538 c-7 -7 -12 -17 -12 -24 0 -6 -7 -17 -15 -24 -13 -10 -15
-9 -15 9 0 11 -4 21 -9 21 -11 0 -24 -31 -16 -38 3 -3 5 1 5 8 0 9 5 7 16 -6
11 -13 17 -15 20 -6 3 6 13 12 22 12 8 0 12 3 9 7 -4 3 0 14 9 24 17 19 4 35
-14 17z"/>
<path d="M3131 2536 c-16 -19 -47 -21 -54 -3 -3 7 -6 5 -6 -5 -1 -9 -9 -22
-18 -28 -17 -11 -17 -11 0 -6 11 4 17 0 18 -12 0 -13 3 -11 9 6 10 24 35 30
43 10 4 -8 6 -7 6 4 1 9 6 18 13 20 6 2 9 10 7 17 -4 10 -8 9 -18 -3z"/>
<path d="M2616 2507 c-19 -30 -20 -31 -24 -9 -2 12 -7 22 -12 22 -5 0 -7 -8
-3 -17 11 -31 15 -34 29 -22 10 8 14 8 14 0 0 -6 7 -11 15 -11 10 0 15 11 15
35 0 44 -9 44 -34 2z m21 -19 c-3 -8 -6 -5 -6 6 -1 11 2 17 5 13 3 -3 4 -12 1
-19z"/>
<path d="M1150 2500 c0 -6 78 -10 215 -10 137 0 215 4 215 10 0 6 -78 10 -215
10 -137 0 -215 -4 -215 -10z"/>
<path d="M2830 2500 c-8 -5 -10 -10 -5 -10 6 0 17 5 25 10 8 5 11 10 5 10 -5
0 -17 -5 -25 -10z"/>
<path d="M3150 2500 c-8 -5 -10 -10 -5 -10 6 0 17 5 25 10 8 5 11 10 5 10 -5
0 -17 -5 -25 -10z"/>
<path d="M3498 2493 c61 -2 163 -2 225 0 61 1 11 3 -113 3 -124 0 -174 -2
-112 -3z"/>
<path d="M2233 2237 c-40 -95 -75 -180 -79 -189 -5 -14 -1 -18 20 -18 22 0 31
8 47 45 l20 46 67 -3 67 -3 15 -42 c13 -39 18 -43 47 -43 18 0 33 2 33 5 0 9
-151 360 -158 367 -4 4 -39 -71 -79 -165z m113 -64 c-2 -2 -22 -3 -44 -1 l-39
3 20 54 21 55 23 -53 c13 -30 22 -56 19 -58z"/>
<path d="M1835 2386 c-39 -17 -70 -52 -90 -98 -39 -94 8 -213 98 -247 57 -22
177 -7 177 21 0 23 -22 49 -33 40 -22 -18 -77 -24 -112 -12 -42 14 -72 50 -81
96 -9 46 1 78 36 118 36 40 77 50 129 32 38 -12 40 -12 50 11 14 32 16 29 -20
42 -43 15 -117 13 -154 -3z"/>
<path d="M2620 2215 l0 -185 25 0 c24 0 25 2 25 75 l0 75 75 0 75 0 0 30 0 30
-75 0 -75 0 0 50 0 50 85 0 85 0 0 30 0 30 -110 0 -110 0 0 -185z"/>
<path d="M2990 2215 l0 -185 125 0 125 0 0 30 0 30 -95 0 -95 0 0 50 0 50 85
0 c84 0 85 0 85 25 0 24 -2 24 -82 27 l-83 3 -3 48 -3 47 95 0 96 0 0 30 0 30
-125 0 -125 0 0 -185z"/>
</g>
</svg>
